<svg width="27" height="22" viewBox="0 0 27 22" fill="none" xmlns="http://www.w3.org/2000/svg">
<g clip-path="url(#clip0_789_1931)">
<path fill-rule="evenodd" clip-rule="evenodd" d="M17.6155 19.2446H25.6329C27.4293 19.2749 27.4302 21.9688 25.6329 22H17.6155C14.8522 22 12.6028 19.7342 12.6028 16.9485V16.4927H12.5914H4.42266L2.6427 21.1202C2.37019 21.8296 1.57819 22.1812 0.873689 21.9067C0.169182 21.6323 -0.179882 20.8338 0.0926249 20.1253L6.73304 2.86172C7.41629 0.974239 9.15133 0.0225594 10.8945 0.00701512C11.4291 0.00224902 12.0276 0.000361206 12.6028 4.807e-05V0H12.7813H15.0593H25.6329C27.4293 0.0303092 27.4302 2.6811 25.6329 2.71233H17.6155C16.3587 2.71233 15.337 3.74284 15.337 5.00848V9.14156H22.0016C23.7979 9.17185 23.7988 11.8657 22.0016 11.8969H15.337V16.9485C15.337 18.2141 16.3587 19.2446 17.6155 19.2446ZM9.28129 3.8621L5.48168 13.7393H12.5914V3.8566C11.9544 2.32757 9.91652 2.33124 9.28129 3.8621Z" fill="#4361EE"/>
</g>
<defs>
<clipPath id="clip0_789_1931">
<rect width="27" height="22" fill="white"/>
</clipPath>
</defs>
</svg>
