<svg width="23" height="18" viewBox="0 0 23 18" fill="none" xmlns="http://www.w3.org/2000/svg">
<path d="M1.77051 18C1.16016 18 0.968913 17.7314 1.19678 17.1943L7.8374 1.48389C8.1141 0.824707 8.49658 0.495117 8.98486 0.495117H21.6558C22.2661 0.495117 22.5713 0.759603 22.5713 1.28857V2.729C22.5713 3.25798 22.2661 3.52246 21.6558 3.52246H14.2949V7.4043H21.0088C21.6191 7.4043 21.9243 7.66878 21.9243 8.19775V9.63818C21.9243 10.1672 21.6191 10.4316 21.0088 10.4316H14.2949V14.9727H22.0464C22.6567 14.9727 22.9619 15.2371 22.9619 15.7661V17.2065C22.9619 17.7355 22.6567 18 22.0464 18H11.585C11.0153 18 10.7305 17.6948 10.7305 17.0845V13.874H6.2627L4.87109 17.1577C4.63509 17.7192 4.26074 18 3.74805 18H1.77051ZM7.53223 10.8467H10.7305V3.52246H10.291C10.1934 4.1084 10.0835 4.60075 9.96143 4.99951C9.83936 5.39014 9.68473 5.80111 9.49756 6.23242L7.53223 10.8467Z" fill="#4361EE"/>
</svg>
