<svg width="20" height="20" viewBox="0 0 20 20" fill="none" xmlns="http://www.w3.org/2000/svg">
<g clip-path="url(#clip0_745_1802)">
<path d="M1.5754 15.0913C0.887978 14.4038 0.501241 13.4718 0.5 12.4997V4.16698C0.501241 3.19482 0.887978 2.26283 1.5754 1.5754C2.26283 0.887978 3.19482 0.501241 4.16698 0.5H12.4997C13.4718 0.501241 14.4038 0.887978 15.0913 1.5754C15.7788 2.2629 16.1655 3.195 16.1667 4.16727V12.4994C16.1655 13.4717 15.7788 14.4038 15.0913 15.0913C14.4038 15.7788 13.4717 16.1655 12.4994 16.1667H4.16727C3.195 16.1655 2.2629 15.7788 1.5754 15.0913ZM19.5 5V15.8327C19.4988 16.805 19.1121 17.7371 18.4246 18.4246C17.7371 19.1121 16.805 19.4988 15.8327 19.5H5C4.91159 19.5 4.82681 19.4649 4.7643 19.4024C4.70179 19.3399 4.66667 19.2551 4.66667 19.1667C4.66667 19.0783 4.70179 18.9935 4.7643 18.931C4.82681 18.8685 4.91159 18.8333 5 18.8333H15.8333C16.629 18.8333 17.392 18.5173 17.9547 17.9547C18.5173 17.392 18.8333 16.629 18.8333 15.8333V5C18.8333 4.91159 18.8685 4.82681 18.931 4.7643C18.9935 4.70179 19.0783 4.66667 19.1667 4.66667C19.2551 4.66667 19.3399 4.70179 19.4024 4.7643C19.4649 4.82681 19.5 4.91159 19.5 5ZM4.16667 1.16667C3.37102 1.16667 2.60796 1.48274 2.04535 2.04535C1.48274 2.60796 1.16667 3.37102 1.16667 4.16667V12.5C1.16667 13.2956 1.48274 14.0587 2.04535 14.6213C2.60796 15.1839 3.37102 15.5 4.16667 15.5H12.5C13.2956 15.5 14.0587 15.1839 14.6213 14.6213C15.1839 14.0587 15.5 13.2956 15.5 12.5V4.16667C15.5 3.37102 15.1839 2.60796 14.6213 2.04535C14.0587 1.48274 13.2956 1.16667 12.5 1.16667H4.16667Z" fill="black" stroke="white"/>
</g>
<defs>
<clipPath id="clip0_745_1802">
<rect width="20" height="20" fill="white"/>
</clipPath>
</defs>
</svg>
