<svg width="22" height="28" viewBox="0 0 22 28" fill="none" xmlns="http://www.w3.org/2000/svg">
<path d="M4.84269 22.7029L4.84056 22.7006C3.61224 21.3485 2.68548 19.7507 2.12179 18.0131C1.5583 16.2762 1.37048 14.4393 1.57079 12.6243C1.89508 9.79538 3.1294 7.14826 5.08801 5.08135C7.04541 3.01572 9.62035 1.64128 12.4257 1.16452C14.2457 0.884369 16.1028 0.959921 17.894 1.38699C18.2219 1.47263 18.5212 1.6437 18.7615 1.88282C19.0036 2.12373 19.177 2.42496 19.2636 2.75535C19.3502 3.08573 19.347 3.43325 19.2542 3.76197C19.1624 4.0873 18.9862 4.3825 18.7436 4.61768C15.881 7.23796 14.5372 10.6256 14.7306 13.9852C14.924 17.3431 16.6479 20.5904 19.7581 22.9499C20.0247 23.1608 20.2304 23.4389 20.3541 23.7556C20.4787 24.0747 20.5156 24.4213 20.4608 24.7595C20.406 25.0976 20.2616 25.4149 20.0426 25.6783C19.8263 25.9384 19.5451 26.1365 19.2276 26.2528C17.7015 26.7497 16.1063 27.0019 14.5012 27L14.5001 28L14.5008 27C12.68 26.9986 10.8798 26.6155 9.2162 25.8754C7.55264 25.1352 6.06275 24.0545 4.84269 22.7029ZM12.4793 1.49329L12.4792 1.49319L12.4655 1.49552C9.73591 1.95716 7.23017 3.29294 5.32541 5.30179C3.42066 7.31064 2.21997 9.88385 1.90408 12.6341L1.90371 12.6374C1.706 14.4119 1.8882 16.208 2.43822 17.9066C2.98824 19.6052 3.89347 21.1672 5.09376 22.489L5.09899 22.4947L5.10431 22.5004C6.85403 24.3679 9.10812 25.6876 11.5931 26.2992C14.0781 26.9108 16.6872 26.7881 19.1038 25.946L19.1147 25.9422L19.1255 25.9381C19.3869 25.8402 19.6177 25.675 19.7947 25.4591C19.9716 25.2432 20.0883 24.9844 20.133 24.7089C20.1777 24.4334 20.1487 24.151 20.0491 23.8903C19.9495 23.6296 19.7827 23.3998 19.5657 23.2243L19.5528 23.2139L19.5396 23.2039C13.1056 18.3445 12.6216 9.739 18.5041 4.38418L18.5041 4.38421L18.5113 4.37751C18.7206 4.18319 18.8715 3.93436 18.9472 3.65897C19.0205 3.39197 19.0203 3.11028 18.9467 2.8437C18.8777 2.57459 18.7386 2.32841 18.5433 2.13038C18.342 1.9263 18.0888 1.78113 17.811 1.7106L17.811 1.71053L17.7994 1.70773C16.7477 1.45406 15.6693 1.32836 14.5875 1.33335C13.8817 1.33184 13.1768 1.38532 12.4793 1.49329Z" fill="black" stroke="#EBEBF0" stroke-width="2"/>
</svg>
