<svg width="23" height="25" viewBox="0 0 23 25" fill="none" xmlns="http://www.w3.org/2000/svg">
<path d="M5.46458 19.0182L5.73338 19.2482C6.56159 19.9568 7.51358 20.5063 8.54141 20.8691L8.87498 20.9868V21.3406V21.875C8.87498 23.3247 10.0502 24.5 11.5 24.5C12.9497 24.5 14.125 23.3247 14.125 21.875V21.3406V20.9871L14.4583 20.8692C15.4863 20.5058 16.4383 19.9556 17.2663 19.2463L17.5351 19.0161L17.8416 19.193L18.3071 19.4617C18.3071 19.4617 18.3072 19.4617 18.3072 19.4617C19.5638 20.1866 21.1701 19.7556 21.895 18.4991L22.2816 18.7221L21.895 18.4991C22.6199 17.2425 22.189 15.6362 20.9325 14.9112C20.9325 14.9112 20.9324 14.9112 20.9324 14.9112L20.47 14.6446L20.1642 14.4683L20.228 14.121C20.4252 13.0479 20.4252 11.9479 20.228 10.8747L20.1642 10.5275L20.47 10.3512L20.9324 10.0846C20.9324 10.0846 20.9325 10.0845 20.9325 10.0845C22.189 9.35953 22.6199 7.75325 21.895 6.49668C21.1701 5.2402 19.5639 4.80917 18.3073 5.53395C18.3073 5.53399 18.3072 5.53403 18.3071 5.53407L17.8438 5.80167L17.5378 5.97839L17.2691 5.74898C16.4401 5.04125 15.4874 4.49275 14.4591 4.13105L14.125 4.01354V3.65937V3.125C14.125 1.67526 12.9497 0.5 11.5 0.5C10.0502 0.5 8.87498 1.67526 8.87498 3.125V3.65937V4.01294L8.54163 4.13078C7.51365 4.4942 6.56163 5.04437 5.73362 5.75369L5.4644 5.98432L5.15767 5.80661L4.69284 5.53729C4.69272 5.53722 4.6926 5.53715 4.69247 5.53708C3.43592 4.81239 1.82982 5.24342 1.10495 6.49986C0.380024 7.75639 0.810933 9.36271 2.06744 10.0877C2.06748 10.0877 2.06752 10.0877 2.06756 10.0878L2.52994 10.3543L2.83578 10.5307L2.77197 10.8779C2.57475 11.951 2.57475 13.0511 2.77197 14.1242L2.83578 14.4714L2.52994 14.6478L2.06858 14.9138C2.06843 14.9138 2.06829 14.9139 2.06814 14.914C0.815119 15.6411 0.385592 17.2444 1.10729 18.5006C1.83109 19.7566 3.43607 20.1881 4.69216 19.4643C4.69079 19.4651 4.68996 19.4656 4.6906 19.4652L5.46458 19.0182ZM5.46458 19.0182L5.15825 19.1951M5.46458 19.0182L5.15825 19.1951M5.15825 19.1951L4.69673 19.4617L4.69473 19.4628M5.15825 19.1951L4.69473 19.4628M4.69473 19.4628L4.69371 19.4634L4.69473 19.4628ZM16.1666 12.5C16.1666 9.92269 14.0773 7.83335 11.5 7.83335C8.92267 7.83335 6.83333 9.92269 6.83333 12.5C6.83333 15.0773 8.92267 17.1667 11.5 17.1667C14.0773 17.1667 16.1666 15.0773 16.1666 12.5Z" fill="#4361EE" stroke="#4361EE"/>
</svg>
