<svg width="25" height="25" viewBox="0 0 25 25" fill="none" xmlns="http://www.w3.org/2000/svg">
<path d="M12.5 15.625C14.2259 15.625 15.625 14.2259 15.625 12.5C15.625 10.7741 14.2259 9.375 12.5 9.375C10.7741 9.375 9.375 10.7741 9.375 12.5C9.375 14.2259 10.7741 15.625 12.5 15.625Z" fill="#F5F5F5" stroke="#4361EE" stroke-linecap="round" stroke-linejoin="round"/>
<path d="M20.2082 15.6251C20.0695 15.9393 20.0281 16.2878 20.0894 16.6257C20.1507 16.9636 20.3118 17.2754 20.5519 17.5209L20.6144 17.5834C20.8081 17.7769 20.9618 18.0067 21.0666 18.2596C21.1715 18.5125 21.2254 18.7836 21.2254 19.0574C21.2254 19.3312 21.1715 19.6023 21.0666 19.8552C20.9618 20.1081 20.8081 20.3378 20.6144 20.5313C20.4209 20.725 20.1912 20.8787 19.9383 20.9835C19.6853 21.0884 19.4142 21.1423 19.1405 21.1423C18.8667 21.1423 18.5956 21.0884 18.3427 20.9835C18.0898 20.8787 17.86 20.725 17.6665 20.5313L17.604 20.4688C17.3585 20.2287 17.0467 20.0676 16.7088 20.0063C16.3709 19.9451 16.0224 19.9864 15.7082 20.1251C15.4001 20.2571 15.1373 20.4764 14.9522 20.7558C14.7672 21.0353 14.6678 21.3628 14.6665 21.698V21.8751C14.6665 22.4276 14.447 22.9575 14.0563 23.3482C13.6656 23.7389 13.1357 23.9584 12.5832 23.9584C12.0306 23.9584 11.5007 23.7389 11.11 23.3482C10.7193 22.9575 10.4998 22.4276 10.4998 21.8751V21.7813C10.4918 21.4365 10.3802 21.1022 10.1795 20.8216C9.9789 20.5411 9.69852 20.3275 9.37484 20.2084C9.06065 20.0698 8.71214 20.0284 8.37422 20.0897C8.03631 20.1509 7.7245 20.312 7.479 20.5522L7.4165 20.6147C7.22302 20.8084 6.99325 20.962 6.74034 21.0669C6.48743 21.1717 6.21633 21.2257 5.94255 21.2257C5.66876 21.2257 5.39767 21.1717 5.14475 21.0669C4.89184 20.962 4.66207 20.8084 4.46859 20.6147C4.27489 20.4212 4.12122 20.1914 4.01638 19.9385C3.91154 19.6856 3.85757 19.4145 3.85757 19.1407C3.85757 18.8669 3.91154 18.5958 4.01638 18.3429C4.12122 18.09 4.27489 17.8602 4.46859 17.6667L4.53109 17.6042C4.77123 17.3587 4.93232 17.0469 4.99359 16.709C5.05486 16.3711 5.0135 16.0226 4.87484 15.7084C4.74279 15.4003 4.52354 15.1376 4.24407 14.9525C3.9646 14.7674 3.63712 14.6681 3.30192 14.6667H3.12484C2.5723 14.6667 2.0424 14.4473 1.6517 14.0566C1.261 13.6659 1.0415 13.136 1.0415 12.5834C1.0415 12.0309 1.261 11.501 1.6517 11.1103C2.0424 10.7196 2.5723 10.5001 3.12484 10.5001H3.21859C3.56337 10.492 3.89776 10.3804 4.17827 10.1798C4.45879 9.97915 4.67246 9.69876 4.7915 9.37508C4.93017 9.0609 4.97153 8.71238 4.91026 8.37447C4.84899 8.03656 4.6879 7.72475 4.44775 7.47925L4.38525 7.41675C4.19155 7.22326 4.03789 6.99349 3.93305 6.74058C3.8282 6.48767 3.77424 6.21657 3.77424 5.94279C3.77424 5.66901 3.8282 5.39791 3.93305 5.145C4.03789 4.89209 4.19155 4.66232 4.38525 4.46883C4.57874 4.27513 4.80851 4.12147 5.06142 4.01662C5.31433 3.91178 5.58543 3.85782 5.85921 3.85782C6.133 3.85782 6.40409 3.91178 6.657 4.01662C6.90992 4.12147 7.13969 4.27513 7.33317 4.46883L7.39567 4.53133C7.64117 4.77147 7.95298 4.93257 8.29089 4.99384C8.6288 5.05511 8.97732 5.01374 9.2915 4.87508H9.37484C9.68293 4.74304 9.94569 4.52379 10.1308 4.24432C10.3158 3.96485 10.4152 3.63736 10.4165 3.30217V3.12508C10.4165 2.57255 10.636 2.04264 11.0267 1.65194C11.4174 1.26124 11.9473 1.04175 12.4998 1.04175C13.0524 1.04175 13.5823 1.26124 13.973 1.65194C14.3637 2.04264 14.5832 2.57255 14.5832 3.12508V3.21883C14.5845 3.55403 14.6838 3.88151 14.8689 4.16098C15.054 4.44045 15.3167 4.6597 15.6248 4.79175C15.939 4.93041 16.2875 4.97177 16.6255 4.9105C16.9634 4.84923 17.2752 4.68814 17.5207 4.448L17.5832 4.3855C17.7767 4.1918 18.0064 4.03813 18.2593 3.93329C18.5123 3.82845 18.7833 3.77448 19.0571 3.77448C19.3309 3.77448 19.602 3.82845 19.8549 3.93329C20.1078 4.03813 20.3376 4.1918 20.5311 4.3855C20.7248 4.57898 20.8785 4.80875 20.9833 5.06166C21.0881 5.31458 21.1421 5.58567 21.1421 5.85946C21.1421 6.13324 21.0881 6.40434 20.9833 6.65725C20.8785 6.91016 20.7248 7.13993 20.5311 7.33342L20.4686 7.39592C20.2284 7.64141 20.0674 7.95322 20.0061 8.29114C19.9448 8.62905 19.9862 8.97757 20.1248 9.29175V9.37508C20.2569 9.68318 20.4761 9.94593 20.7556 10.131C21.0351 10.3161 21.3626 10.4154 21.6978 10.4167H21.8748C22.4274 10.4167 22.9573 10.6362 23.348 11.0269C23.7387 11.4176 23.9582 11.9475 23.9582 12.5001C23.9582 13.0526 23.7387 13.5825 23.348 13.9732C22.9573 14.3639 22.4274 14.5834 21.8748 14.5834H21.7811C21.4459 14.5848 21.1184 14.6841 20.8389 14.8692C20.5595 15.0542 20.3402 15.317 20.2082 15.6251Z" fill="#4361EE" stroke="#4361EE" stroke-linecap="round" stroke-linejoin="round"/>
</svg>
