<svg width="25" height="25" viewBox="0 0 25 25" fill="none" xmlns="http://www.w3.org/2000/svg">
<g clip-path="url(#clip0_789_1913)">
<path d="M2.91469 13.4166H2.91751L1.68158 12.513C1.19464 12.157 0.832669 11.6562 0.647355 11.0822C0.462041 10.5082 0.462868 9.89025 0.649718 9.31672C0.836567 8.74319 1.19988 8.24337 1.68777 7.88866C2.17557 7.53402 2.76295 7.34257 3.36603 7.34164C3.36614 7.34164 3.36625 7.34164 3.36635 7.34164L7.91668 7.34164H8.28137L8.39278 6.99439L9.77507 2.68606L9.77512 2.68592C9.96015 2.10863 10.3238 1.60502 10.8135 1.24771L10.5202 0.845729L10.8135 1.24771C11.3032 0.89041 11.8938 0.697876 12.5 0.697876C13.1062 0.697876 13.6968 0.89041 14.1865 1.24771L14.4784 0.847648L14.1865 1.24771C14.6763 1.60502 15.0399 2.10863 15.2249 2.68592L15.225 2.68606L16.6073 6.99439L16.7187 7.34164H17.0833L21.6378 7.34164C21.638 7.34164 21.6381 7.34164 21.6382 7.34164C22.2413 7.34257 22.8286 7.53402 23.3164 7.88866C23.8043 8.24337 24.1676 8.74319 24.3545 9.31672C24.5413 9.89025 24.5422 10.5082 24.3568 11.0822C24.1716 11.6561 23.8097 12.1569 23.3228 12.5129C23.3228 12.5129 23.3227 12.513 23.3226 12.513L19.6145 15.2212L19.3225 15.4345L19.4336 15.7786L20.8419 20.1401C21.0279 20.716 21.0264 21.3362 20.8377 21.9113C20.649 22.4864 20.2829 22.9868 19.7918 23.3407C19.3008 23.6946 18.7102 23.8836 18.1049 23.8807C17.4997 23.8777 16.9109 23.6829 16.4234 23.3243L16.4232 23.3242L12.7961 20.6585L12.4998 20.4408L12.2036 20.6587L8.5776 23.3275L8.57758 23.3275L8.57295 23.331C8.08946 23.6955 7.50112 23.8941 6.89559 23.8971C6.29007 23.9002 5.69977 23.7075 5.21266 23.3478L5.21274 23.3476L5.20326 23.341C4.70763 22.9924 4.33791 22.4931 4.14923 21.9173C3.96054 21.3415 3.96299 20.7202 4.15621 20.1459L4.15624 20.1459L4.15812 20.1401L5.56645 15.7786L5.67757 15.4345L5.38554 15.2212L2.91469 13.4166Z" fill="#4361EE" stroke="#4361EE"/>
</g>
<defs>
<clipPath id="clip0_789_1913">
<rect width="25" height="25" fill="white"/>
</clipPath>
</defs>
</svg>
