<svg width="20" height="20" viewBox="0 0 20 20" fill="none" xmlns="http://www.w3.org/2000/svg">
<g clip-path="url(#clip0_745_1799)">
<path d="M16.514 4.40105L16.5135 4.40064C16.4825 4.36964 16.458 4.33284 16.4412 4.29235C16.4244 4.25185 16.4158 4.20844 16.4158 4.16461C16.4158 4.12077 16.4244 4.07737 16.4412 4.03687C16.458 3.99637 16.4825 3.95957 16.5135 3.92858C16.5445 3.89758 16.5813 3.87299 16.6218 3.85622C16.6623 3.83944 16.7057 3.83081 16.7496 3.83081C16.7934 3.83081 16.8368 3.83944 16.8773 3.85622C16.9178 3.87299 16.9546 3.89758 16.9856 3.92858L17.3391 3.57505L16.9852 3.92818C18.5932 5.5398 19.4962 7.72343 19.4962 10C19.4962 12.2766 18.5932 14.4602 16.9852 16.0719L17.3389 16.4248L16.9856 16.0715C16.923 16.1341 16.8381 16.1692 16.7496 16.1692C16.661 16.1692 16.5761 16.1341 16.5135 16.0715C16.4509 16.0089 16.4158 15.924 16.4158 15.8354C16.4158 15.7469 16.4509 15.662 16.5135 15.5994L16.514 15.599C17.9966 14.1128 18.8293 12.0993 18.8293 10C18.8293 7.90076 17.9966 5.88721 16.514 4.40105Z" fill="white" stroke="white"/>
<path d="M14.7294 13.571L14.7291 13.5713C14.6981 13.6025 14.6611 13.6272 14.6205 13.6442C14.5798 13.6611 14.5363 13.6698 14.4922 13.6699C14.4033 13.6701 14.318 13.6349 14.255 13.5721C14.2238 13.541 14.199 13.5041 14.1821 13.4635C14.1652 13.4228 14.1565 13.3793 14.1564 13.3352C14.1563 13.2912 14.1649 13.2476 14.1817 13.2069C14.1984 13.1662 14.2231 13.1292 14.2542 13.098C15.0748 12.2759 15.5358 11.1617 15.5358 10.0001C15.5358 8.83825 15.0747 7.72393 14.2538 6.90177L13.9 7.25505L14.2542 6.90213C14.2231 6.87094 14.1984 6.83393 14.1817 6.79323C14.1649 6.75252 14.1563 6.70891 14.1564 6.66488C14.1565 6.62085 14.1652 6.57727 14.1821 6.53662C14.199 6.49598 14.2238 6.45906 14.255 6.42798C14.2862 6.3969 14.3232 6.37227 14.3639 6.3555C14.4046 6.33872 14.4482 6.33012 14.4922 6.3302C14.5363 6.33028 14.5798 6.33903 14.6205 6.35595C14.6611 6.37287 14.6981 6.39763 14.7291 6.42882L15.0833 6.07589L14.7294 6.4291C15.6753 7.37681 16.2065 8.66108 16.2065 10.0001C16.2065 11.339 15.6753 12.6233 14.7294 13.571Z" fill="white" stroke="white"/>
<path d="M11.5167 0.166719C8.98275 0.642775 6.7289 2.07493 5.22167 4.16672H4.16667C3.06214 4.16848 2.00336 4.60803 1.22234 5.38905C0.441316 6.17007 0.00176302 7.22886 0 8.33339L0 11.6667C0.00176302 12.7712 0.441316 13.83 1.22234 14.611C2.00336 15.3921 3.06214 15.8316 4.16667 15.8334H5.22167C6.7292 17.9249 8.98291 19.3569 11.5167 19.8334C11.5664 19.8431 11.6169 19.8478 11.6675 19.8476C11.8885 19.8476 12.1005 19.7598 12.2568 19.6035C12.413 19.4472 12.5008 19.2352 12.5008 19.0142V0.988385C12.5011 0.865997 12.4745 0.745043 12.4228 0.63412C12.371 0.523198 12.2955 0.425029 12.2016 0.346592C12.1076 0.268154 11.9976 0.211374 11.8792 0.180286C11.7608 0.149198 11.637 0.144566 11.5167 0.166719V0.166719ZM10.8333 17.9459C8.99532 17.36 7.4149 16.1594 6.3575 14.5459C6.28195 14.4297 6.1786 14.3341 6.0568 14.2679C5.93501 14.2017 5.79863 14.1669 5.66 14.1667H4.16667C3.50363 14.1667 2.86774 13.9033 2.3989 13.4345C1.93006 12.9656 1.66667 12.3298 1.66667 11.6667V8.33339C1.66667 7.67034 1.93006 7.03446 2.3989 6.56562C2.86774 6.09678 3.50363 5.83339 4.16667 5.83339H5.66667C5.80514 5.83337 5.94142 5.79884 6.06321 5.73293C6.18499 5.66702 6.28842 5.5718 6.36417 5.45589C7.41941 3.84275 8.9974 2.64167 10.8333 2.05422V17.9459Z" fill="white"/>
</g>
<defs>
<clipPath id="clip0_745_1799">
<rect width="20" height="20" fill="white"/>
</clipPath>
</defs>
</svg>
